ffmpeg started on 2025-05-28 at 20:50:46
Report written to "D:\Convert\FFMetrics\reports\ssim_report-6.txt"
Log level: 32
Command line:
ffmpeg -hide_banner -nostdin -i "G:\\\xc0\xed\xe8\xec\xe5\\\xce\xed\xe3\xee\xe8\xed\xe3\xe8\\!_36_\xce\xf1\xe5\xed\xfc_2024\\JamClub\\\xc8\xf1\xf2\xee\xf0\xe8\xff \xee \xf2\xee\xec, \xea\xe0\xea \xff \xef\xf0\xe8\xf8\xb8\xeb \xed\xe0 \xe2\xe5\xf7\xe5\xf0\xe8\xed\xea\xf3, \xe0 \xf2\xe0\xec \xed\xe5 \xe1\xfb\xeb\xee \xed\xe8 \xee\xe4\xed\xee\xe9 \xe6\xe5\xed\xf9\xe8\xed\xfb\\JamClub_Goukon_ni_Ittara_Onna_ga_Inakatta_Hanashi_10_1080p_HEVC.mkv" -i "G:\\\xc0\xed\xe8\xec\xe5\\\xce\xed\xe3\xee\xe8\xed\xe3\xe8\\!_36_\xce\xf1\xe5\xed\xfc_2024\\JamClub\\\xc8\xf1\xf2\xee\xf0\xe8\xff \xee \xf2\xee\xec, \xea\xe0\xea \xff \xef\xf0\xe8\xf8\xb8\xeb \xed\xe0 \xe2\xe5\xf7\xe5\xf0\xe8\xed\xea\xf3, \xe0 \xf2\xe0\xec \xed\xe5 \xe1\xfb\xeb\xee \xed\xe8 \xee\xe4\xed\xee\xe9 \xe6\xe5\xed\xf9\xe8\xed\xfb\\JamClub_Goukon_ni_Ittara_Onna_ga_Inakatta_Hanashi_10_1080p.mp4" -lavfi "[0:v]settb=AVTB,setpts=PTS-STARTPTS,format=pix_fmts=yuv420p10,fps=24000/1001,scale=1920:1080:flags=bicubic[main];[1:v]settb=AVTB,setpts=PTS-STARTPTS,format=pix_fmts=yuv420p,fps=24000/1001,scale=1920:1080:flags=bicubic[ref];[main][ref]ssim=eof_action=endall:stats_file='D\\:/Convert/FFMetrics/logs/ssim_logfile-6.txt'" -f null -
Input #0, matroska,webm, from 'G:\Аниме\Онгоинги\!_36_Осень_2024\JamClub\История о том, как я пришёл на вечеринку, а там не было ни одной женщины\JamClub_Goukon_ni_Ittara_Onna_ga_Inakatta_Hanashi_10_1080p_HEVC.mkv':
  Metadata:
    COMPATIBLE_BRANDS: isomiso2avc1mp41
    MAJOR_BRAND     : isom
    MINOR_VERSION   : 512
    ENCODER         : Lavf61.7.100
  Duration: 00:24:03.69, start: -0.001000, bitrate: 916 kb/s
  Stream #0:0: Video: hevc (Main 10), yuv420p10le(tv, bt709, progressive), 1920x1080 [SAR 1:1 DAR 16:9], 23.98 fps, 23.98 tbr, 1k tbn (default)
      Metadata:
        HANDLER_NAME    : VideoHandler
        VENDOR_ID       : [0][0][0][0]
        ENCODER         : Lavc61.19.100 libx265
        BPS             : 719522
        DURATION        : 00:24:03.650708333
        NUMBER_OF_FRAMES: 34613
        NUMBER_OF_BYTES : 129842415
        _STATISTICS_WRITING_APP: mkvpropedit v66.0.0 ('Josie') 64-bit
        _STATISTICS_WRITING_DATE_UTC: 2025-05-28 11:08:01
        _STATISTICS_TAGS: BPS DURATION NUMBER_OF_FRAMES NUMBER_OF_BYTES
  Stream #0:1(eng): Audio: aac (LC), 48000 Hz, stereo, fltp (default)
      Metadata:
        HANDLER_NAME    : SoundHandler
        VENDOR_ID       : [0][0][0][0]
        ENCODER         : Lavc61.19.100 aac
        BPS             : 193295
        DURATION        : 00:24:03.651000000
        NUMBER_OF_FRAMES: 67672
        NUMBER_OF_BYTES : 34881396
        _STATISTICS_WRITING_APP: mkvpropedit v66.0.0 ('Josie') 64-bit
        _STATISTICS_WRITING_DATE_UTC: 2025-05-28 11:08:01
        _STATISTICS_TAGS: BPS DURATION NUMBER_OF_FRAMES NUMBER_OF_BYTES
Input #1, mov,mp4,m4a,3gp,3g2,mj2, from 'G:\Аниме\Онгоинги\!_36_Осень_2024\JamClub\История о том, как я пришёл на вечеринку, а там не было ни одной женщины\JamClub_Goukon_ni_Ittara_Onna_ga_Inakatta_Hanashi_10_1080p.mp4':
  Metadata:
    major_brand     : isom
    minor_version   : 512
    compatible_brands: isomiso2avc1mp41
    encoder         : Lavf60.16.100
  Duration: 00:24:03.67, start: 0.000000, bitrate: 2276 kb/s
  Stream #1:0[0x1](und): Video: h264 (High) (avc1 / 0x31637661), yuv420p(progressive), 1920x1080 [SAR 1:1 DAR 16:9], 2078 kb/s, 23.98 fps, 23.98 tbr, 90k tbn (default)
      Metadata:
        handler_name    : VideoHandler
        vendor_id       : [0][0][0][0]
  Stream #1:1[0x2](eng): Audio: aac (LC) (mp4a / 0x6134706D), 48000 Hz, stereo, fltp, 191 kb/s (default)
      Metadata:
        handler_name    : SoundHandler
        vendor_id       : [0][0][0][0]
Stream mapping:
  Stream #0:0 (hevc) -> settb:default
  Stream #1:0 (h264) -> settb:default
  ssim:default -> Stream #0:0 (wrapped_avframe)
  Stream #0:1 -> #0:1 (aac (native) -> pcm_s16le (native))
Output #0, null, to 'pipe:':
  Metadata:
    COMPATIBLE_BRANDS: isomiso2avc1mp41
    MAJOR_BRAND     : isom
    MINOR_VERSION   : 512
    encoder         : Lavf61.7.100
  Stream #0:0: Video: wrapped_avframe, yuv420p10le(tv, bt709, progressive), 1920x1080 [SAR 1:1 DAR 16:9], q=2-31, 200 kb/s, 23.98 fps, 23.98 tbn
      Metadata:
        encoder         : Lavc61.19.100 wrapped_avframe
  Stream #0:1(eng): Audio: pcm_s16le, 48000 Hz, stereo, s16, 1536 kb/s (default)
      Metadata:
        HANDLER_NAME    : SoundHandler
        VENDOR_ID       : [0][0][0][0]
        _STATISTICS_TAGS: BPS DURATION NUMBER_OF_FRAMES NUMBER_OF_BYTES
        BPS             : 193295
        DURATION        : 00:24:03.651000000
        NUMBER_OF_FRAMES: 67672
        NUMBER_OF_BYTES : 34881396
        _STATISTICS_WRITING_APP: mkvpropedit v66.0.0 ('Josie') 64-bit
        _STATISTICS_WRITING_DATE_UTC: 2025-05-28 11:08:01
        encoder         : Lavc61.19.100 pcm_s16le
frame=  113 fps=0.0 q=-0.0 size=N/A time=00:00:04.71 bitrate=N/A speed=9.28x    frame=  280 fps=272 q=-0.0 size=N/A time=00:00:11.67 bitrate=N/A speed=11.3x    frame=  485 fps=312 q=-0.0 size=N/A time=00:00:20.22 bitrate=N/A speed=  13x    frame=  758 fps=368 q=-0.0 size=N/A time=00:00:31.61 bitrate=N/A speed=15.3x    frame= 1000 fps=387 q=-0.0 size=N/A time=00:00:41.70 bitrate=N/A speed=16.1x    frame= 1274 fps=412 q=-0.0 size=N/A time=00:00:53.13 bitrate=N/A speed=17.2x    frame= 1550 fps=429 q=-0.0 size=N/A time=00:01:04.64 bitrate=N/A speed=17.9x    frame= 1773 fps=430 q=-0.0 size=N/A time=00:01:13.94 bitrate=N/A speed=17.9x    frame= 1978 fps=426 q=-0.0 size=N/A time=00:01:22.49 bitrate=N/A speed=17.8x    frame= 2209 fps=429 q=-0.0 size=N/A time=00:01:32.13 bitrate=N/A speed=17.9x    frame= 2468 fps=435 q=-0.0 size=N/A time=00:01:42.93 bitrate=N/A speed=18.1x    frame= 2678 fps=433 q=-0.0 size=N/A time=00:01:51.69 bitrate=N/A speed=18.1x    frame= 2917 fps=435 q=-0.0 size=N/A time=00:02:01.66 bitrate=N/A speed=18.1x    frame= 3141 fps=435 q=-0.0 size=N/A time=00:02:11.00 bitrate=N/A speed=18.1x    frame= 3378 fps=437 q=-0.0 size=N/A time=00:02:20.89 bitrate=N/A speed=18.2x    frame= 3626 fps=440 q=-0.0 size=N/A time=00:02:31.23 bitrate=N/A speed=18.3x    frame= 3841 fps=438 q=-0.0 size=N/A time=00:02:40.20 bitrate=N/A speed=18.3x    frame= 4125 fps=444 q=-0.0 size=N/A time=00:02:52.04 bitrate=N/A speed=18.5x    frame= 4367 fps=446 q=-0.0 size=N/A time=00:03:02.14 bitrate=N/A speed=18.6x    frame= 4643 fps=450 q=-0.0 size=N/A time=00:03:13.65 bitrate=N/A speed=18.8x    frame= 4881 fps=451 q=-0.0 size=N/A time=00:03:23.57 bitrate=N/A speed=18.8x    frame= 5152 fps=454 q=-0.0 size=N/A time=00:03:34.88 bitrate=N/A speed=18.9x    frame= 5416 fps=457 q=-0.0 size=N/A time=00:03:45.89 bitrate=N/A speed=19.1x    frame= 5670 fps=458 q=-0.0 size=N/A time=00:03:56.48 bitrate=N/A speed=19.1x    frame= 5935 fps=460 q=-0.0 size=N/A time=00:04:07.53 bitrate=N/A speed=19.2x    frame= 6202 fps=463 q=-0.0 size=N/A time=00:04:18.67 bitrate=N/A speed=19.3x    frame= 6483 fps=465 q=-0.0 size=N/A time=00:04:30.39 bitrate=N/A speed=19.4x    frame= 6750 fps=468 q=-0.0 size=N/A time=00:04:41.53 bitrate=N/A speed=19.5x    frame= 7016 fps=469 q=-0.0 size=N/A time=00:04:52.62 bitrate=N/A speed=19.6x    frame= 7284 fps=471 q=-0.0 size=N/A time=00:05:03.80 bitrate=N/A speed=19.6x    frame= 7535 fps=472 q=-0.0 size=N/A time=00:05:14.27 bitrate=N/A speed=19.7x    frame= 7815 fps=473 q=-0.0 size=N/A time=00:05:25.95 bitrate=N/A speed=19.7x    frame= 8084 fps=475 q=-0.0 size=N/A time=00:05:37.17 bitrate=N/A speed=19.8x    frame= 8361 fps=477 q=-0.0 size=N/A time=00:05:48.72 bitrate=N/A speed=19.9x    frame= 8620 fps=478 q=-0.0 size=N/A time=00:05:59.52 bitrate=N/A speed=19.9x    frame= 8896 fps=479 q=-0.0 size=N/A time=00:06:11.03 bitrate=N/A speed=  20x    frame= 9170 fps=481 q=-0.0 size=N/A time=00:06:22.46 bitrate=N/A speed=20.1x    frame= 9449 fps=482 q=-0.0 size=N/A time=00:06:34.10 bitrate=N/A speed=20.1x    frame= 9721 fps=483 q=-0.0 size=N/A time=00:06:45.44 bitrate=N/A speed=20.2x    frame= 9975 fps=484 q=-0.0 size=N/A time=00:06:56.04 bitrate=N/A speed=20.2x    frame=10249 fps=485 q=-0.0 size=N/A time=00:07:07.46 bitrate=N/A speed=20.2x    frame=10518 fps=486 q=-0.0 size=N/A time=00:07:18.68 bitrate=N/A speed=20.3x    frame=10814 fps=488 q=-0.0 size=N/A time=00:07:31.03 bitrate=N/A speed=20.3x    frame=11045 fps=487 q=-0.0 size=N/A time=00:07:40.66 bitrate=N/A speed=20.3x    frame=11325 fps=488 q=-0.0 size=N/A time=00:07:52.34 bitrate=N/A speed=20.4x    frame=11585 fps=488 q=-0.0 size=N/A time=00:08:03.19 bitrate=N/A speed=20.4x    frame=11841 fps=488 q=-0.0 size=N/A time=00:08:13.86 bitrate=N/A speed=20.4x    frame=12089 fps=489 q=-0.0 size=N/A time=00:08:24.21 bitrate=N/A speed=20.4x    frame=12374 fps=490 q=-0.0 size=N/A time=00:08:36.09 bitrate=N/A speed=20.4x    frame=12630 fps=490 q=-0.0 size=N/A time=00:08:46.77 bitrate=N/A speed=20.4x    frame=12866 fps=489 q=-0.0 size=N/A time=00:08:56.61 bitrate=N/A speed=20.4x    frame=13081 fps=488 q=-0.0 size=N/A time=00:09:05.58 bitrate=N/A speed=20.4x    frame=13329 fps=488 q=-0.0 size=N/A time=00:09:15.93 bitrate=N/A speed=20.3x    frame=13546 fps=486 q=-0.0 size=N/A time=00:09:24.98 bitrate=N/A speed=20.3x    frame=13733 fps=484 q=-0.0 size=N/A time=00:09:32.78 bitrate=N/A speed=20.2x    frame=13933 fps=482 q=-0.0 size=N/A time=00:09:41.12 bitrate=N/A speed=20.1x    frame=14190 fps=483 q=-0.0 size=N/A time=00:09:51.84 bitrate=N/A speed=20.1x    frame=14458 fps=483 q=-0.0 size=N/A time=00:10:03.01 bitrate=N/A speed=20.2x    frame=14706 fps=483 q=-0.0 size=N/A time=00:10:13.36 bitrate=N/A speed=20.2x    frame=14973 fps=484 q=-0.0 size=N/A time=00:10:24.49 bitrate=N/A speed=20.2x    frame=15253 fps=485 q=-0.0 size=N/A time=00:10:36.17 bitrate=N/A speed=20.2x    frame=15525 fps=486 q=-0.0 size=N/A time=00:10:47.52 bitrate=N/A speed=20.3x    frame=15797 fps=486 q=-0.0 size=N/A time=00:10:58.86 bitrate=N/A speed=20.3x    frame=16075 fps=487 q=-0.0 size=N/A time=00:11:10.46 bitrate=N/A speed=20.3x    frame=16338 fps=487 q=-0.0 size=N/A time=00:11:21.43 bitrate=N/A speed=20.3x    frame=16525 fps=486 q=-0.0 size=N/A time=00:11:29.23 bitrate=N/A speed=20.3x    frame=16788 fps=486 q=-0.0 size=N/A time=00:11:40.19 bitrate=N/A speed=20.3x    frame=17065 fps=487 q=-0.0 size=N/A time=00:11:51.75 bitrate=N/A speed=20.3x    frame=17354 fps=488 q=-0.0 size=N/A time=00:12:03.80 bitrate=N/A speed=20.3x    frame=17618 fps=488 q=-0.0 size=N/A time=00:12:14.81 bitrate=N/A speed=20.4x    frame=17896 fps=489 q=-0.0 size=N/A time=00:12:26.41 bitrate=N/A speed=20.4x    frame=18170 fps=489 q=-0.0 size=N/A time=00:12:37.84 bitrate=N/A speed=20.4x    frame=18440 fps=490 q=-0.0 size=N/A time=00:12:49.10 bitrate=N/A speed=20.4x    frame=18731 fps=491 q=-0.0 size=N/A time=00:13:01.23 bitrate=N/A speed=20.5x    frame=19002 fps=491 q=-0.0 size=N/A time=00:13:12.54 bitrate=N/A speed=20.5x    frame=19266 fps=492 q=-0.0 size=N/A time=00:13:23.55 bitrate=N/A speed=20.5x    frame=19502 fps=491 q=-0.0 size=N/A time=00:13:33.39 bitrate=N/A speed=20.5x    frame=19708 fps=490 q=-0.0 size=N/A time=00:13:41.98 bitrate=N/A speed=20.4x    frame=19972 fps=490 q=-0.0 size=N/A time=00:13:52.99 bitrate=N/A speed=20.4x    frame=20254 fps=491 q=-0.0 size=N/A time=00:14:04.76 bitrate=N/A speed=20.5x    frame=20513 fps=491 q=-0.0 size=N/A time=00:14:15.56 bitrate=N/A speed=20.5x    frame=20767 fps=491 q=-0.0 size=N/A time=00:14:26.15 bitrate=N/A speed=20.5x    frame=21040 fps=491 q=-0.0 size=N/A time=00:14:37.54 bitrate=N/A speed=20.5x    frame=21308 fps=492 q=-0.0 size=N/A time=00:14:48.72 bitrate=N/A speed=20.5x    frame=21540 fps=491 q=-0.0 size=N/A time=00:14:58.39 bitrate=N/A speed=20.5x    frame=21802 fps=492 q=-0.0 size=N/A time=00:15:09.32 bitrate=N/A speed=20.5x    frame=22074 fps=492 q=-0.0 size=N/A time=00:15:20.66 bitrate=N/A speed=20.5x    frame=22326 fps=492 q=-0.0 size=N/A time=00:15:31.18 bitrate=N/A speed=20.5x    frame=22579 fps=492 q=-0.0 size=N/A time=00:15:41.73 bitrate=N/A speed=20.5x    frame=22860 fps=492 q=-0.0 size=N/A time=00:15:53.45 bitrate=N/A speed=20.5x    frame=23133 fps=493 q=-0.0 size=N/A time=00:16:04.83 bitrate=N/A speed=20.6x    frame=23380 fps=493 q=-0.0 size=N/A time=00:16:15.14 bitrate=N/A speed=20.6x    frame=23593 fps=492 q=-0.0 size=N/A time=00:16:24.02 bitrate=N/A speed=20.5x    frame=23872 fps=492 q=-0.0 size=N/A time=00:16:35.66 bitrate=N/A speed=20.5x    frame=24085 fps=492 q=-0.0 size=N/A time=00:16:44.54 bitrate=N/A speed=20.5x    frame=24298 fps=491 q=-0.0 size=N/A time=00:16:53.42 bitrate=N/A speed=20.5x    frame=24584 fps=491 q=-0.0 size=N/A time=00:17:05.35 bitrate=N/A speed=20.5x    frame=24855 fps=492 q=-0.0 size=N/A time=00:17:16.66 bitrate=N/A speed=20.5x    frame=25126 fps=492 q=-0.0 size=N/A time=00:17:27.96 bitrate=N/A speed=20.5x    frame=25375 fps=492 q=-0.0 size=N/A time=00:17:38.34 bitrate=N/A speed=20.5x    frame=25647 fps=492 q=-0.0 size=N/A time=00:17:49.69 bitrate=N/A speed=20.5x    frame=25938 fps=493 q=-0.0 size=N/A time=00:18:01.83 bitrate=N/A speed=20.6x    frame=26182 fps=493 q=-0.0 size=N/A time=00:18:12.00 bitrate=N/A speed=20.5x    frame=26436 fps=493 q=-0.0 size=N/A time=00:18:22.60 bitrate=N/A speed=20.5x    frame=26673 fps=492 q=-0.0 size=N/A time=00:18:32.48 bitrate=N/A speed=20.5x    frame=26958 fps=493 q=-0.0 size=N/A time=00:18:44.37 bitrate=N/A speed=20.6x    frame=27238 fps=493 q=-0.0 size=N/A time=00:18:56.05 bitrate=N/A speed=20.6x    frame=27505 fps=493 q=-0.0 size=N/A time=00:19:07.18 bitrate=N/A speed=20.6x    frame=27783 fps=494 q=-0.0 size=N/A time=00:19:18.78 bitrate=N/A speed=20.6x    frame=28052 fps=494 q=-0.0 size=N/A time=00:19:30.00 bitrate=N/A speed=20.6x    frame=28326 fps=495 q=-0.0 size=N/A time=00:19:41.43 bitrate=N/A speed=20.6x    frame=28588 fps=495 q=-0.0 size=N/A time=00:19:52.35 bitrate=N/A speed=20.6x    frame=28844 fps=495 q=-0.0 size=N/A time=00:20:03.03 bitrate=N/A speed=20.6x    frame=29100 fps=495 q=-0.0 size=N/A time=00:20:13.71 bitrate=N/A speed=20.6x    frame=29359 fps=495 q=-0.0 size=N/A time=00:20:24.51 bitrate=N/A speed=20.6x    frame=29621 fps=495 q=-0.0 size=N/A time=00:20:35.44 bitrate=N/A speed=20.6x    frame=29885 fps=495 q=-0.0 size=N/A time=00:20:46.45 bitrate=N/A speed=20.6x    frame=30166 fps=495 q=-0.0 size=N/A time=00:20:58.17 bitrate=N/A speed=20.7x    frame=30438 fps=496 q=-0.0 size=N/A time=00:21:09.51 bitrate=N/A speed=20.7x    frame=30724 fps=496 q=-0.0 size=N/A time=00:21:21.44 bitrate=N/A speed=20.7x    frame=30997 fps=497 q=-0.0 size=N/A time=00:21:32.83 bitrate=N/A speed=20.7x    frame=31284 fps=497 q=-0.0 size=N/A time=00:21:44.80 bitrate=N/A speed=20.7x    frame=31558 fps=497 q=-0.0 size=N/A time=00:21:56.23 bitrate=N/A speed=20.7x    frame=31806 fps=497 q=-0.0 size=N/A time=00:22:06.57 bitrate=N/A speed=20.7x    frame=32069 fps=497 q=-0.0 size=N/A time=00:22:17.54 bitrate=N/A speed=20.7x    frame=32280 fps=496 q=-0.0 size=N/A time=00:22:26.34 bitrate=N/A speed=20.7x    frame=32535 fps=496 q=-0.0 size=N/A time=00:22:36.98 bitrate=N/A speed=20.7x    frame=32789 fps=496 q=-0.0 size=N/A time=00:22:47.57 bitrate=N/A speed=20.7x    frame=33027 fps=496 q=-0.0 size=N/A time=00:22:57.50 bitrate=N/A speed=20.7x    frame=33223 fps=495 q=-0.0 size=N/A time=00:23:05.67 bitrate=N/A speed=20.7x    frame=33451 fps=495 q=-0.0 size=N/A time=00:23:15.18 bitrate=N/A speed=20.6x    frame=33710 fps=495 q=-0.0 size=N/A time=00:23:25.98 bitrate=N/A speed=20.6x    frame=33935 fps=494 q=-0.0 size=N/A time=00:23:35.37 bitrate=N/A speed=20.6x    frame=34163 fps=494 q=-0.0 size=N/A time=00:23:44.88 bitrate=N/A speed=20.6x    frame=34421 fps=494 q=-0.0 size=N/A time=00:23:55.64 bitrate=N/A speed=20.6x    [Parsed_ssim_10 @ 000001a53fe84c80] SSIM Y:0.996510 (24.571614) U:0.995757 (23.722786) V:0.995577 (23.542557) All:0.996229 (24.235209)
[out#0/null @ 000001a539304a80] video:14873KiB audio:270688KiB subtitle:0KiB other streams:0KiB global headers:0KiB muxing overhead: unknown
frame=34613 fps=494 q=-0.0 Lsize=N/A time=00:24:03.65 bitrate=N/A speed=20.6x    
